<?xml version="1.0" encoding="utf-8"?>
<!-- Generator: Adobe Illustrator 16.0.0, SVG Export Plug-In . SVG Version: 6.00 Build 0)  -->
<!DOCTYPE svg PUBLIC "-//W3C//DTD SVG 1.1//EN" "http://www.w3.org/Graphics/SVG/1.1/DTD/svg11.dtd">
<svg version="1.1" xmlns="http://www.w3.org/2000/svg" xmlns:xlink="http://www.w3.org/1999/xlink" x="0px" y="0px" width="64px"
	 height="64px" viewBox="0 0 64 64" enable-background="new 0 0 64 64" xml:space="preserve">
<g id="eye">
	<g>
		<path fill="#1D1D1B" d="M1.172,61.564c0.244,0.129,0.509,0.271,1.028,0.271c1.65-0.002,5.869-1.416,20.096-9.092
			c0.848,0.191,1.317,0.334,1.962,0.533l0.957,0.289c1.081,0.312,2.199-0.299,2.516-1.367c0.314-1.064-0.301-2.184-1.372-2.498
			l-0.905-0.271c-0.855-0.261-1.527-0.469-3.062-0.779c-0.47-0.098-0.954-0.024-1.374,0.203C16.11,51.508,10.544,54.342,6.715,56.1
			c0.58-0.747,1.172-1.496,1.679-2.139c4.375-5.543,5.376-6.986,5.175-8.438c-0.074-0.538-0.438-1.159-0.878-1.482
			c-5.504-4.012-8.537-9.388-8.537-15.136c0-11.6,12.495-21.037,27.853-21.037S59.86,17.305,59.86,28.904
			c0,1.113,0.908,2.014,2.024,2.014c1.118,0,2.026-0.9,2.026-2.014c0-13.818-14.313-25.062-31.905-25.062S0.103,15.086,0.103,28.904
			c0,6.517,3.253,12.803,8.982,17.453c-0.872,1.31-2.624,3.527-3.88,5.119c-4.524,5.734-5.468,7.105-5.149,8.602
			C0.179,60.66,0.646,61.283,1.172,61.564z"/>
		<path fill="#1D1D1B" d="M63.864,44.653c0-7.348-7.487-13.325-16.69-13.325c-9.202,0-16.689,5.978-16.689,13.325
			c0,7.138,7.062,12.983,15.903,13.313c1.698,1.406,6.705,4.936,15.243,6.018C61.716,63.994,61.81,64,61.895,64
			c0.728,0,1.437-0.405,1.797-1.032c0.709-1.225,0.272-1.962-2.137-6.052c-0.572-0.972-1.411-2.4-1.931-3.369
			C62.337,51.119,63.864,47.946,63.864,44.653z M56.047,51.254c-1.763,1.282-0.889,2.768,2.011,7.693
			c0.06,0.102,0.118,0.201,0.183,0.305c-6.427-1.635-9.6-4.674-9.631-4.703c-0.38-0.379-0.898-0.594-1.436-0.594
			c-6.968,0-12.637-4.173-12.637-9.302c0-5.128,5.669-9.3,12.637-9.3c6.969,0,12.64,4.172,12.64,9.3
			C59.813,47.139,58.473,49.485,56.047,51.254z"/>
	</g>
</g>
<g id="comment">
</g>
<g id="map-marker">
</g>
<g id="earth">
</g>
<g id="heart">
</g>
<g id="twitter">
</g>
<g id="bucket">
</g>
<g id="paperclip">
</g>
<g id="undo">
</g>
<g id="redo">
</g>
<g id="chevron-left">
</g>
<g id="chevron-right">
</g>
<g id="cross">
</g>
<g id="search">
</g>
<g id="hamburger">
</g>
</svg>
