<?xml version="1.0" encoding="utf-8"?>
<!-- Generator: Adobe Illustrator 16.0.0, SVG Export Plug-In . SVG Version: 6.00 Build 0)  -->
<!DOCTYPE svg PUBLIC "-//W3C//DTD SVG 1.1//EN" "http://www.w3.org/Graphics/SVG/1.1/DTD/svg11.dtd">
<svg version="1.1" xmlns="http://www.w3.org/2000/svg" xmlns:xlink="http://www.w3.org/1999/xlink" x="0px" y="0px" width="64px"
	 height="64px" viewBox="0 0 64 64" enable-background="new 0 0 64 64" xml:space="preserve">
<g id="eye">
	<path fill="#1D1D1B" d="M53.368,22.262c2.395-1.436,4.022-4.043,4.022-7.048c0-4.538-3.662-8.229-8.164-8.229
		c-4.5,0-8.16,3.691-8.16,8.229c0,3.044,1.67,5.68,4.118,7.101c-0.788,0.266-1.548,0.596-2.271,1.019
		c-1.088-5.091-5.583-8.918-10.952-8.918c-5.306,0-9.752,3.743-10.904,8.745c-0.672-0.365-1.373-0.661-2.1-0.895
		c2.4-1.434,4.031-4.043,4.031-7.052c0-4.538-3.662-8.229-8.162-8.229s-8.162,3.691-8.162,8.229c0,3.055,1.684,5.695,4.143,7.113
		C3.682,24.745,0.654,33.099,0.043,37.867c-0.074,0.576,0.104,1.155,0.482,1.592c0.379,0.436,0.928,0.686,1.504,0.686h17.757
		c-7.263,5.334-8.899,14.357-8.919,14.485c-0.098,0.587,0.064,1.185,0.445,1.639c0.38,0.454,0.939,0.716,1.53,0.716h38.236
		c0.014-0.002,0.025-0.002,0.039,0c1.107,0,2.003-0.902,2.003-2.02c0-0.266-0.051-0.519-0.145-0.752
		c-0.381-1.941-2.234-9.41-8.447-14.068h17.494c0.567,0,1.111-0.242,1.49-0.67c0.38-0.426,0.562-0.994,0.502-1.564
		C63.5,33.087,60.6,24.597,53.368,22.262z M49.227,11.023c2.291,0,4.157,1.879,4.157,4.19c0,2.308-1.866,4.185-4.157,4.185
		s-4.154-1.877-4.154-4.185C45.072,12.902,46.936,11.023,49.227,11.023z M31.961,18.454c3.97,0,7.199,3.255,7.199,7.257
		s-3.229,7.258-7.199,7.258c-3.967,0-7.197-3.256-7.197-7.258S27.994,18.454,31.961,18.454z M14.826,11.023
		c2.291,0,4.156,1.879,4.156,4.19c0,2.308-1.865,4.185-4.156,4.185c-2.293,0-4.154-1.877-4.154-4.185
		C10.672,12.902,12.533,11.023,14.826,11.023z M14.982,25.672c2.244,0,4.121,0.684,5.734,2.094c0.076,0.067,0.173,0.094,0.257,0.146
		c0.728,3.695,3.247,6.748,6.604,8.193H4.5C5.48,32.447,8.21,25.672,14.982,25.672z M48.556,52.945h-33.13
		c1.375-4.224,5.521-12.605,16.768-12.605C43.385,40.34,47.299,48.749,48.556,52.945z M35.289,36.498
		c0.014-0.004,0.025-0.01,0.037-0.014c-0.008,0.006-0.016,0.012-0.023,0.016C35.299,36.5,35.295,36.5,35.289,36.498z M36.43,36.105
		c-0.062,0-0.113,0.03-0.176,0.036c3.357-1.408,5.889-4.413,6.663-8.069c0.274-0.074,0.536-0.191,0.767-0.385
		c1.634-1.357,3.498-2.016,5.701-2.016c6.834,0,9.367,6.788,10.236,10.434H36.43z"/>
</g>
<g id="comment">
</g>
<g id="map-marker">
</g>
<g id="earth">
</g>
<g id="heart">
</g>
<g id="twitter">
</g>
<g id="bucket">
</g>
<g id="paperclip">
</g>
<g id="undo">
</g>
<g id="redo">
</g>
<g id="chevron-left">
</g>
<g id="chevron-right">
</g>
<g id="cross">
</g>
<g id="search">
</g>
<g id="hamburger">
</g>
</svg>
