<?xml version="1.0" encoding="utf-8"?>
<!-- Generator: Adobe Illustrator 16.0.0, SVG Export Plug-In . SVG Version: 6.00 Build 0)  -->
<!DOCTYPE svg PUBLIC "-//W3C//DTD SVG 1.1//EN" "http://www.w3.org/Graphics/SVG/1.1/DTD/svg11.dtd">
<svg version="1.1" xmlns="http://www.w3.org/2000/svg" xmlns:xlink="http://www.w3.org/1999/xlink" x="0px" y="0px" width="64px"
	 height="64px" viewBox="0 0 64 64" enable-background="new 0 0 64 64" xml:space="preserve">
<g id="eye">
	<g>
		<path fill="#1D1D1B" d="M62.463,1.543C61.446,0.526,60.06,0.001,58.633,0c-1.43,0.021-2.778,0.591-3.801,1.609l-2.446,2.443
			c-0.01,0.012-0.015,0.025-0.024,0.035L20.453,35.906c-0.104,0.104-0.158,0.233-0.234,0.353c-0.131,0.152-0.245,0.317-0.327,0.505
			l-3.254,7.5c-0.324,0.75-0.169,1.62,0.397,2.211c0.392,0.41,0.927,0.631,1.476,0.631c0.241,0,0.486-0.043,0.719-0.131l7.824-2.943
			c0.217-0.081,0.406-0.209,0.579-0.352c0.126-0.08,0.262-0.14,0.367-0.245L60.035,11.49c0.006-0.006,0.008-0.014,0.015-0.02
			l2.341-2.33C64.509,7.029,64.541,3.62,62.463,1.543z M26.558,39.119l-1.777-1.773L53.932,8.277l1.776,1.773L26.558,39.119z
			 M59.508,6.262l-0.916,0.912l-1.784-1.779l0.911-0.91c0.265-0.264,0.609-0.411,0.972-0.416c0.344-0.008,0.653,0.119,0.883,0.348
			C60.065,4.907,60.033,5.736,59.508,6.262z"/>
		<path fill="#1D1D1B" d="M58.454,22.253c-1.128,0-2.04,0.911-2.04,2.034v33.611c0,1.121-0.915,2.033-2.04,2.033H6.12
			c-1.126,0-2.04-0.912-2.04-2.033V9.787c0-1.121,0.914-2.034,2.04-2.034h33.403c1.127,0,2.04-0.911,2.04-2.034
			s-0.913-2.034-2.04-2.034H6.12C2.745,3.685,0,6.422,0,9.787v48.111C0,61.263,2.745,64,6.12,64h48.254
			c3.374,0,6.12-2.737,6.12-6.102V24.287C60.494,23.164,59.581,22.253,58.454,22.253z"/>
	</g>
</g>
<g id="comment">
</g>
<g id="map-marker">
</g>
<g id="earth">
</g>
<g id="heart">
</g>
<g id="twitter">
</g>
<g id="bucket">
</g>
<g id="paperclip">
</g>
<g id="undo">
</g>
<g id="redo">
</g>
<g id="chevron-left">
</g>
<g id="chevron-right">
</g>
<g id="cross">
</g>
<g id="search">
</g>
<g id="hamburger">
</g>
</svg>
